<svg width="162" height="395" viewBox="0 0 162 395" fill="none" xmlns="http://www.w3.org/2000/svg">
<g filter="url(#filter0_d_0_1)">
<path d="M6.515 179V167.78C12.125 167.44 16.12 166.25 18.5 164.21C21.05 162.17 22.665 159.11 23.345 155.03C24.025 150.95 24.365 145.765 24.365 139.475V33.395C24.365 29.655 24.45 26.085 24.62 22.685C24.79 19.115 24.96 16.055 25.13 13.505C22.24 13.675 19.095 13.845 15.695 14.015C12.295 14.185 9.235 14.355 6.515 14.525V0.499988H69.245V11.72C63.805 11.89 59.81 13.08 57.26 15.29C54.71 17.33 53.095 20.39 52.415 24.47C51.735 28.38 51.395 33.565 51.395 40.025V145.595C51.395 150.185 51.31 154.265 51.14 157.835C51.14 161.235 50.97 164.04 50.63 166.25L93.725 165.74C104.265 165.57 112.34 162.17 117.95 155.54C123.56 148.74 126.365 138.03 126.365 123.41H137.84L136.31 179H6.515Z" fill="#A6C36F"/>
</g>
<g filter="url(#filter1_d_0_1)">
<path d="M4.76 387V371.32C16.3333 354.52 29.8667 334.733 45.36 311.96C61.04 289.187 78.8667 262.027 98.84 230.48C101.827 225.813 104.72 221.333 107.52 217.04C110.507 212.747 113.773 208.547 117.32 204.44L53.76 204.72C43.12 204.907 34.8133 208.547 28.84 215.64C22.8667 222.547 19.88 233.84 19.88 249.52H7.56L9.24 191H149.24V204.44L55.44 346.96C51.3333 352.933 47.6933 358.067 44.52 362.36C41.3467 366.467 38.08 370.2 34.72 373.56L97.16 373.28C108.733 373.093 118.347 369.547 126 362.64C133.84 355.547 137.76 344.253 137.76 328.76H150.36L148.68 387H4.76Z" fill="#A6C36F"/>
</g>
<g filter="url(#filter2_d_0_1)">
<path d="M108.04 360.28C103.987 360.28 100.6 359.427 97.88 357.72C95.16 355.96 93.0267 353.667 91.48 350.84C89.9333 347.96 88.8133 344.813 88.12 341.4C87.48 337.987 87.16 334.6 87.16 331.24C87.16 327.88 87.56 324.467 88.36 321C89.2133 317.533 90.4933 314.36 92.2 311.48C93.9067 308.547 96.0933 306.2 98.76 304.44C101.427 302.627 104.627 301.72 108.36 301.72C112.253 301.72 115.507 302.6 118.12 304.36C120.787 306.12 122.92 308.44 124.52 311.32C126.12 314.147 127.267 317.267 127.96 320.68C128.653 324.093 129 327.48 129 330.84C129 334.147 128.6 337.533 127.8 341C127 344.467 125.747 347.667 124.04 350.6C122.387 353.48 120.227 355.827 117.56 357.64C114.947 359.4 111.773 360.28 108.04 360.28ZM108.52 356.28C110.707 356.28 112.493 355.613 113.88 354.28C115.267 352.947 116.36 351.133 117.16 348.84C118.013 346.547 118.6 343.987 118.92 341.16C119.24 338.333 119.4 335.453 119.4 332.52C119.4 329.267 119.24 326.067 118.92 322.92C118.6 319.72 118.013 316.813 117.16 314.2C116.36 311.587 115.24 309.507 113.8 307.96C112.36 306.413 110.493 305.64 108.2 305.64C106.067 305.64 104.253 306.307 102.76 307.64C101.267 308.973 100.067 310.787 99.16 313.08C98.3067 315.373 97.6667 317.96 97.24 320.84C96.8667 323.667 96.68 326.573 96.68 329.56C96.68 331.8 96.76 334.147 96.92 336.6C97.1333 339.053 97.48 341.453 97.96 343.8C98.4933 346.147 99.1867 348.253 100.04 350.12C100.947 351.987 102.093 353.48 103.48 354.6C104.867 355.72 106.547 356.28 108.52 356.28Z" fill="#A6C36F"/>
</g>
<g filter="url(#filter3_d_0_1)">
<path d="M139.8 156.14C139.8 158.78 139.74 161.36 139.62 163.88C139.62 166.28 139.44 168.32 139.08 170C141.36 169.88 143.7 169.82 146.1 169.82C148.62 169.7 150.84 169.58 152.76 169.46V179H105.6V171.08H106.86C110.46 170.84 113.28 170 115.32 168.56C117.36 167 118.8 164.78 119.64 161.9C120.48 159.02 120.9 155.3 120.9 150.74V144.98H68.16V133.46L132.24 50.12H139.8V132.38L157.8 132.56V144.98H139.8V156.14ZM120.54 79.82L81.66 131.66L120.9 132.02V79.82H120.54Z" fill="#A6C36F"/>
</g>
<defs>
<filter id="filter0_d_0_1" x="2.515" y="0.5" width="139.325" height="186.5" filterUnits="userSpaceOnUse" color-interpolation-filters="sRGB">
<feFlood flood-opacity="0" result="BackgroundImageFix"/>
<feColorMatrix in="SourceAlpha" type="matrix" values="0 0 0 0 0 0 0 0 0 0 0 0 0 0 0 0 0 0 127 0" result="hardAlpha"/>
<feOffset dy="4"/>
<feGaussianBlur stdDeviation="2"/>
<feComposite in2="hardAlpha" operator="out"/>
<feColorMatrix type="matrix" values="0 0 0 0 0 0 0 0 0 0 0 0 0 0 0 0 0 0 0.25 0"/>
<feBlend mode="normal" in2="BackgroundImageFix" result="effect1_dropShadow_0_1"/>
<feBlend mode="normal" in="SourceGraphic" in2="effect1_dropShadow_0_1" result="shape"/>
</filter>
<filter id="filter1_d_0_1" x="0.760001" y="191" width="153.6" height="204" filterUnits="userSpaceOnUse" color-interpolation-filters="sRGB">
<feFlood flood-opacity="0" result="BackgroundImageFix"/>
<feColorMatrix in="SourceAlpha" type="matrix" values="0 0 0 0 0 0 0 0 0 0 0 0 0 0 0 0 0 0 127 0" result="hardAlpha"/>
<feOffset dy="4"/>
<feGaussianBlur stdDeviation="2"/>
<feComposite in2="hardAlpha" operator="out"/>
<feColorMatrix type="matrix" values="0 0 0 0 0 0 0 0 0 0 0 0 0 0 0 0 0 0 0.25 0"/>
<feBlend mode="normal" in2="BackgroundImageFix" result="effect1_dropShadow_0_1"/>
<feBlend mode="normal" in="SourceGraphic" in2="effect1_dropShadow_0_1" result="shape"/>
</filter>
<filter id="filter2_d_0_1" x="83.16" y="301.72" width="49.84" height="66.56" filterUnits="userSpaceOnUse" color-interpolation-filters="sRGB">
<feFlood flood-opacity="0" result="BackgroundImageFix"/>
<feColorMatrix in="SourceAlpha" type="matrix" values="0 0 0 0 0 0 0 0 0 0 0 0 0 0 0 0 0 0 127 0" result="hardAlpha"/>
<feOffset dy="4"/>
<feGaussianBlur stdDeviation="2"/>
<feComposite in2="hardAlpha" operator="out"/>
<feColorMatrix type="matrix" values="0 0 0 0 0 0 0 0 0 0 0 0 0 0 0 0 0 0 0.25 0"/>
<feBlend mode="normal" in2="BackgroundImageFix" result="effect1_dropShadow_0_1"/>
<feBlend mode="normal" in="SourceGraphic" in2="effect1_dropShadow_0_1" result="shape"/>
</filter>
<filter id="filter3_d_0_1" x="64.16" y="50.12" width="97.64" height="136.88" filterUnits="userSpaceOnUse" color-interpolation-filters="sRGB">
<feFlood flood-opacity="0" result="BackgroundImageFix"/>
<feColorMatrix in="SourceAlpha" type="matrix" values="0 0 0 0 0 0 0 0 0 0 0 0 0 0 0 0 0 0 127 0" result="hardAlpha"/>
<feOffset dy="4"/>
<feGaussianBlur stdDeviation="2"/>
<feComposite in2="hardAlpha" operator="out"/>
<feColorMatrix type="matrix" values="0 0 0 0 0 0 0 0 0 0 0 0 0 0 0 0 0 0 0.25 0"/>
<feBlend mode="normal" in2="BackgroundImageFix" result="effect1_dropShadow_0_1"/>
<feBlend mode="normal" in="SourceGraphic" in2="effect1_dropShadow_0_1" result="shape"/>
</filter>
</defs>
</svg>
